<?xml version="1.0" encoding="UTF-8" standalone="no"?>
<!-- Created with Inkscape (http://www.inkscape.org/) -->

<svg
   version="1.1"
   id="svg140"
   width="67"
   height="51"
   viewBox="0 0 67 51"
   sodipodi:docname="bike1.svg"
   inkscape:version="1.1.2 (b8e25be833, 2022-02-05)"
   xmlns:inkscape="http://www.inkscape.org/namespaces/inkscape"
   xmlns:sodipodi="http://sodipodi.sourceforge.net/DTD/sodipodi-0.dtd"
   xmlns="http://www.w3.org/2000/svg"
   xmlns:svg="http://www.w3.org/2000/svg">
  <defs
     id="defs144" />
  <sodipodi:namedview
     id="namedview142"
     pagecolor="#ffffff"
     bordercolor="#666666"
     borderopacity="1.0"
     inkscape:pageshadow="2"
     inkscape:pageopacity="0.0"
     inkscape:pagecheckerboard="0"
     showgrid="false"
     showguides="false"
     inkscape:zoom="8.7238585"
     inkscape:cx="18.397823"
     inkscape:cy="31.465435"
     inkscape:window-width="1366"
     inkscape:window-height="706"
     inkscape:window-x="-8"
     inkscape:window-y="-8"
     inkscape:window-maximized="1"
     inkscape:current-layer="layer1" />
  <g
     inkscape:groupmode="layer"
     id="layer1"
     inkscape:label="Image 1"
     style="display:inline">
    <path
       style="display:inline;fill:none;stroke:#900c3f;stroke-width:1px;stroke-linecap:butt;stroke-linejoin:miter;stroke-opacity:1"
       d="M 6.3081761,13.044025 C 15.716981,1.9245283 15.716981,1.9245283 15.716981,1.9245283 h 4.27673 l 0.855346,2.672956 2.99371,0.4276729 0.427673,-3.2075471 2.993711,-1.60377362 h 5.132075 l 1.176101,1.60377362 0.106918,4.8113207 -1.603773,2.1383648 -2.031447,0.427673 2.672956,5.5597484 7.163522,0.534591 v -4.490566 h 3.314466 l 6.415094,6.308176 0.213836,5.132076 -0.855346,1.1761 8.767296,0.213837 3.955975,1.924528 2.031446,2.45912 -2.566037,-0.106919 -1.176101,-1.1761 -2.993711,-1.176101 -7.805031,-0.106918 0.213836,3.849056 -1.924528,2.352202 -4.490566,0.213836 -0.106918,7.27044 -19.031447,-0.748427 0.106919,-5.666667 -5.452831,0.213837 -7.484276,-4.704403 H 8.1257862 l -5.0251573,-3.421384 -3.42138362,-0.106918 0.10691824,-2.99371 5.88050318,0.106918 2.9937107,2.99371 7.3773586,0.106919 0.106918,2.352201 h 5.025157 L 20.955975,25.018868 10.157233,19.031447 9.7295597,15.716981 Z"
       id="path281" />
    <path
       style="display:inline;fill:none;stroke:#900c3f;stroke-width:1px;stroke-linecap:butt;stroke-linejoin:miter;stroke-opacity:1"
       d="m 20.100629,16.144654 7.484277,6.735849 3.742138,0.427673 2.138365,-1.81761 5.45283,-0.213836 -0.320755,-2.45912 -8.446541,-0.962264 -4.062893,-6.842767 z"
       id="path291" />
    <ellipse
       style="display:inline;fill:#900c3f"
       id="path999"
       cx="54.833637"
       cy="36.761902"
       rx="11.44025"
       ry="10.424528" />
    <ellipse
       style="display:inline;fill:#900c3f"
       id="path532"
       cx="11.326134"
       cy="37.044621"
       rx="11.279874"
       ry="10.264152" />
    <path
       style="fill:#900c3f;stroke-width:0.106918"
       d="m 32.567026,38.186468 -8.168822,-0.328657 0.06344,-2.877736 0.06344,-2.877736 -0.92921,0.06421 c -0.511066,0.03531 -1.827282,0.09565 -2.924924,0.13408 l -1.995712,0.06988 -3.769399,-2.366068 -3.7694,-2.366067 H 9.7008542 8.2652647 L 5.7571051,25.927673 3.2489454,24.216981 H 1.7581204 0.2672956 v -0.973384 -0.973383 l 2.5646869,0.03785 2.564687,0.03785 1.5262733,1.523585 1.5262734,1.523585 h 3.0576388 c 1.681701,0 3.280863,0.0306 3.553694,0.06799 l 0.496055,0.06799 v 0.992446 c 0,0.545845 0.0292,1.06855 0.0649,1.161567 0.05708,0.14875 0.432413,0.169122 3.115861,0.169122 h 3.050961 l -0.06998,-0.668239 c -0.03849,-0.367531 -0.10088,-1.069402 -0.138645,-1.559713 -0.06764,-0.8782 -0.07439,-0.895153 -0.453109,-1.138408 -0.211446,-0.135814 -2.621712,-1.482655 -5.356146,-2.99298 -2.734434,-1.510328 -5.003419,-2.778232 -5.042191,-2.817568 -0.03877,-0.03934 -0.150088,-0.721048 -0.24737,-1.514916 C 10.383605,16.366507 10.281534,15.638338 10.254067,15.54222 10.226597,15.4461 9.5107079,14.826443 8.6631965,14.165199 L 7.1222607,12.962938 8.3189919,11.547686 C 8.9771942,10.769298 10.959119,8.4204999 12.72327,6.3281358 l 3.207548,-3.8042982 1.835602,-0.00563 1.835601,-0.00563 0.398899,1.2780263 c 0.360411,1.154712 0.42573,1.2833546 0.676978,1.3332477 0.710093,0.1410123 3.55454,0.5095369 3.597932,0.4661456 0.02684,-0.02684 0.15689,-0.8075374 0.289,-1.7348841 l 0.240201,-1.686085 1.283019,-0.681924 1.283019,-0.68192399 2.375559,-0.001647 2.375557,-0.001647 0.455594,0.61477989 0.455594,0.6147798 0.04079,2.205409 0.04079,2.2054089 -0.680119,0.9094663 -0.68012,0.9094662 -1.22956,0.263875 C 29.716408,8.6986357 29.305624,8.833626 29.3249,8.919495 c 0.05995,0.2670838 2.924423,6.160442 3.048858,6.272719 0.07449,0.06721 1.558273,0.217656 3.497308,0.354598 1.852359,0.13082 3.644576,0.265564 3.982705,0.299431 l 0.614779,0.06158 v -2.260514 -2.260515 l 1.25629,0.0042 1.256289,0.0042 3.045878,2.9757 3.045877,2.9757 0.09287,2.354195 0.09287,2.354194 -0.650963,0.886875 c -0.358031,0.487781 -0.623777,0.914072 -0.59055,0.94731 0.03323,0.03324 2.20948,0.114052 4.836116,0.179585 l 4.775702,0.11915 L 59.5,25.10833 c 1.804007,0.887353 1.891419,0.945355 2.438846,1.618271 l 0.567777,0.697933 h -0.495525 c -0.455194,0 -0.54618,-0.04832 -1.11788,-0.593625 -0.556503,-0.530814 -0.790408,-0.659385 -2.210616,-1.21512 l -1.588262,-0.621501 -4.26238,-0.05156 -4.262381,-0.05156 0.06284,0.812274 c 0.03456,0.446751 0.09384,1.391706 0.131716,2.0999 l 0.06887,1.287627 -0.783482,0.957656 c -0.430915,0.526712 -0.82761,0.988387 -0.881546,1.025945 -0.05394,0.03756 -1.066153,0.101126 -2.249376,0.141265 -1.183221,0.04014 -2.23551,0.09685 -2.338418,0.126025 -0.172637,0.04894 -0.187107,0.291128 -0.187107,3.131548 0,1.693175 -0.0306,3.301725 -0.06799,3.574556 l -0.06799,0.496054 -0.760624,-0.01445 c -0.418344,-0.0079 -4.436595,-0.162346 -8.929448,-0.343107 z m 0.01349,-15.192829 c 0.571798,-0.493237 1.173213,-0.923019 1.336478,-0.955072 0.163264,-0.03205 1.467651,-0.09091 2.898636,-0.130804 1.914702,-0.05337 2.615213,-0.107505 2.65262,-0.204985 0.06059,-0.15789 -0.336285,-3.241674 -0.429143,-3.334532 -0.03542,-0.03542 -1.929458,-0.275504 -4.208982,-0.533528 -2.279524,-0.258023 -4.192702,-0.485265 -4.251507,-0.504981 -0.0588,-0.01972 -1.038448,-1.605978 -2.176987,-3.525027 -1.138537,-1.919049 -2.108968,-3.513221 -2.156514,-3.542606 -0.07622,-0.04711 -6.946373,5.765378 -6.946373,5.876973 0,0.02422 1.671934,1.546388 3.715409,3.382593 2.043475,1.836205 3.848687,3.4613 4.011582,3.611322 0.269355,0.248067 0.472669,0.293873 2.245283,0.505849 1.07201,0.128195 2.02128,0.237247 2.109487,0.242337 0.08821,0.0051 0.628212,-0.394303 1.200011,-0.887539 z"
       id="path3603" />
    <path
       style="fill:#900c3f;stroke-width:0.106918"
       d="m 32.912863,39.201306 -9.533678,-0.3826 0.06124,-2.810296 0.06124,-2.810297 -0.524418,0.0041 c -0.28843,0.0023 -1.433621,0.04644 -2.544868,0.09816 l -2.020451,0.09403 -3.722179,-2.34344 -3.722179,-2.343442 H 9.5103625 8.0531539 l -2.5297215,-1.731055 -2.5297217,-1.731055 -1.9123374,-0.0467 -1.91233731,-0.0467 0.0679977,-0.804412 c 0.0373988,-0.442426 0.0679977,-1.32282 0.0679977,-1.95643 v -1.15202 l 3.23427671,0.0574 3.2342767,0.0574 1.5178235,1.50456 1.5178236,1.504561 3.8548171,0.04784 3.854819,0.04784 v 1.162124 1.162124 h 2.09827 2.098271 l -0.06682,-0.33412 c -0.03675,-0.183765 -0.06682,-0.515215 -0.06682,-0.736554 V 25.309911 L 15.316038,22.396218 C 12.41989,20.793687 9.9781447,19.415439 9.8899371,19.333445 9.7834925,19.234497 9.6576495,18.638243 9.5157233,17.560386 L 9.3018868,15.936411 7.5154657,14.543676 C 6.5329343,13.777674 5.7390664,13.118341 5.7513148,13.078495 5.7635634,13.038647 7.9760321,10.404449 10.667912,7.2247207 l 4.894327,-5.7813245 2.376113,0.00203 2.376113,0.00203 0.4243,1.3467624 c 0.233365,0.7407195 0.473931,1.3647263 0.534591,1.3866819 0.156299,0.056572 2.136097,0.3444097 2.168768,0.315312 0.01487,-0.013241 0.115111,-0.6814949 0.222766,-1.4850095 0.107654,-0.8035146 0.215774,-1.4772072 0.240266,-1.4970946 0.02449,-0.019887 0.7888,-0.4288408 1.698465,-0.90878536 l 1.653935,-0.87262584 2.676254,0.003607 2.676253,0.003607 0.706955,0.98538671 0.706956,0.98538679 0.05302,2.5282514 0.05302,2.5282513 -0.920356,1.2107753 -0.920358,1.2107752 -0.748427,0.1472036 c -0.411636,0.080962 -0.768418,0.1665029 -0.792851,0.1900912 -0.02443,0.023588 0.472497,1.1157413 1.104285,2.4270053 l 1.148706,2.384117 2.691313,0.186669 c 1.480223,0.102669 2.919852,0.214845 3.199175,0.249282 l 0.507862,0.06261 V 12.576667 10.31761 h 1.961206 1.961204 L 46.700257,13.658805 50.078735,17 l 0.09946,2.672956 c 0.09413,2.529653 0.08873,2.688171 -0.100688,2.956757 -0.110081,0.156089 -0.200147,0.305595 -0.200147,0.332235 0,0.02664 1.78488,0.08373 3.9664,0.12686 l 3.966398,0.07842 2.083808,1.026303 2.083807,1.026302 1.237732,1.503289 c 0.680752,0.826809 1.285991,1.565998 1.344977,1.642641 0.08765,0.113887 -0.223253,0.126275 -1.70146,0.06779 l -1.808706,-0.07156 -0.641509,-0.621771 C 59.841898,27.190756 59.605663,27.053971 58.37736,26.56397 l -1.389937,-0.55448 -3.661949,-0.05632 -3.66195,-0.05633 0.0046,0.30944 c 0.0025,0.170192 0.04649,0.958969 0.09764,1.752836 l 0.09301,1.443397 -1.011909,1.24773 c -0.55655,0.686252 -1.069594,1.295297 -1.140096,1.353432 -0.0705,0.05814 -1.048004,0.140537 -2.172225,0.183111 l -2.044039,0.07741 -0.06684,0.707524 c -0.03676,0.389139 -0.06718,2.042667 -0.0676,3.674506 l -7.61e-4,2.966982 -0.454403,-0.01465 c -0.249921,-0.0081 -4.744557,-0.186822 -9.98808,-0.397251 z M 42.431309,37.99375 C 42.469089,37.632294 42.5,36.002317 42.5,34.371579 v -2.964977 l 2.218553,-0.07378 c 1.220205,-0.04058 2.303126,-0.09792 2.406493,-0.127436 0.103365,-0.02951 0.552788,-0.495347 0.998717,-1.035185 l 0.810778,-0.981525 -0.06476,-1.336478 c -0.03562,-0.735063 -0.09339,-1.681421 -0.128395,-2.103016 l -0.06364,-0.766539 4.154836,0.05424 4.154835,0.05424 1.550315,0.598596 c 1.382399,0.533762 1.615583,0.661356 2.152919,1.178036 0.58413,0.561676 0.624816,0.581224 1.327036,0.637591 0.830778,0.06669 0.835215,0.139524 -0.05857,-0.961657 -0.441844,-0.544371 -0.635018,-0.668937 -2.365696,-1.525504 l -1.884565,-0.932731 -3.033674,-0.08958 c -1.668521,-0.04927 -3.815514,-0.09185 -4.771096,-0.09461 -0.955582,-0.0028 -1.737421,-0.03361 -1.737421,-0.06855 0,-0.03493 0.268543,-0.431238 0.596763,-0.880674 l 0.596764,-0.817158 -0.07759,-2.243019 C 49.239933,18.658197 49.175871,17.541932 49.140245,17.41127 49.10462,17.280606 47.720611,15.847589 46.06467,14.226787 l -3.010801,-2.946913 h -1.346117 -1.346117 v 2.245283 c 0,1.234906 -0.03608,2.244527 -0.08019,2.243605 -0.0441,-9.63e-4 -1.643868,-0.12082 -3.555032,-0.266436 -3.513273,-0.267685 -4.789874,-0.32227 -3.63522,-0.155434 0.323428,0.04673 1.959277,0.185672 3.63522,0.308757 1.675943,0.123083 3.203538,0.249557 3.394654,0.281052 l 0.347484,0.05727 v -2.311312 -2.31131 l 1.25629,0.07631 1.256289,0.07631 1.977987,1.90172 c 1.087894,1.045946 2.445013,2.374282 3.015822,2.951856 l 1.037834,1.050135 0.0996,2.286135 0.0996,2.286137 -0.644544,0.901091 c -0.369672,0.516813 -0.603961,0.94006 -0.549381,0.992468 0.05234,0.05026 2.2362,0.149638 4.853024,0.220845 l 4.757862,0.12947 1.784755,0.898531 c 1.595015,0.803006 1.847903,0.968311 2.37874,1.554905 0.326692,0.361007 0.574931,0.67543 0.551642,0.698719 -0.150972,0.150971 -0.90367,-0.165568 -1.362311,-0.572905 -0.619152,-0.549895 -0.92263,-0.712546 -2.55306,-1.368321 l -1.227439,-0.49369 -4.369271,-0.06885 -4.369271,-0.06885 0.06081,0.311588 c 0.03344,0.171374 0.08931,0.937061 0.124152,1.701526 0.03484,0.764465 0.08846,1.56462 0.119164,1.778121 0.05157,0.358627 -0.0053,0.461663 -0.747401,1.353247 -0.441773,0.530786 -0.848148,0.992829 -0.903055,1.026764 -0.05491,0.03393 -1.102634,0.111599 -2.32828,0.172586 -1.225647,0.06099 -2.262143,0.145959 -2.303326,0.188826 -0.04118,0.04287 -0.108638,1.617563 -0.149902,3.499324 -0.04126,1.881761 -0.105188,3.470333 -0.142055,3.530161 -0.04536,0.07361 -1.190362,0.06752 -3.541876,-0.01884 -6.843807,-0.251352 -12.152517,-0.464157 -13.166222,-0.527783 l -1.031002,-0.06471 0.05816,-2.881904 0.05816,-2.881904 -0.524014,0.06244 c -0.288207,0.03434 -1.600481,0.106309 -2.916164,0.15993 l -2.39215,0.0975 -3.735325,-2.34593 -3.735327,-2.345929 H 9.8225604 8.3780597 L 5.8772128,25.927673 3.376366,24.216981 l -1.5278056,0.02335 -1.52780568,0.02335 1.43364008,0.03333 1.4336401,0.03333 2.4965042,1.707471 2.4965041,1.70747 h 1.4407657 1.4407661 l 3.76453,2.36561 3.76453,2.36561 1.984056,-0.06942 c 1.091232,-0.03818 2.401454,-0.09825 2.911606,-0.133493 l 0.927548,-0.06408 -0.06196,2.843527 c -0.05202,2.387218 -0.03787,2.850823 0.08817,2.888996 0.144023,0.04362 15.432138,0.663991 17.108178,0.694229 l 0.813386,0.01467 z M 21.830381,27.611635 C 21.798712,27.479324 21.741025,26.913994 21.702188,26.355346 21.570799,24.46537 22.181365,24.987765 16.225599,21.669618 13.358437,20.07223 10.952202,18.725954 10.878408,18.677893 10.80033,18.627041 10.653514,17.946378 10.527233,17.049789 10.352691,15.810551 10.265304,15.46125 10.08064,15.264683 9.954365,15.130271 9.2608801,14.55621 8.5395614,13.988994 L 7.2280727,12.957692 7.7838477,12.292026 C 8.0895239,11.925911 10.047642,9.6000004 12.13522,7.1233382 l 3.795598,-4.5030225 1.256289,-0.023027 c 0.690959,-0.012665 1.505104,-0.024877 1.809212,-0.027139 l 0.552922,-0.00411 0.386501,1.201373 c 0.212576,0.6607553 0.432865,1.2471077 0.48953,1.3030056 0.105245,0.1038174 2.996475,0.5427912 3.575006,0.5427912 0.243745,0 0.332644,-0.057067 0.374758,-0.240566 0.05235,-0.2281082 0.483455,-3.0022459 0.483455,-3.1110167 0,-0.028268 0.598936,-0.3682739 1.33097,-0.7555675 l 1.33097,-0.70417051 2.277521,0.002844 2.27752,0.002844 0.43679,0.61458241 0.436788,0.6145826 0.06729,2.1737241 0.06729,2.1737243 -0.658343,0.8707987 c -0.362087,0.4789393 -0.704131,0.9019917 -0.760098,0.9401165 -0.05597,0.038125 -0.395511,0.1248585 -0.754545,0.1927416 -0.689397,0.130346 -1.668513,0.4200955 -1.668513,0.4937629 0,0.2108946 2.947047,6.2058621 3.095963,6.2978981 0.147133,0.09093 -0.08494,-0.424363 -1.525557,-3.387423 C 30.134679,10.397854 29.550961,9.1654311 29.515393,9.0533653 29.459028,8.8757791 29.536887,8.8328992 30.121588,8.719507 31.928452,8.3690983 31.748175,8.4647538 32.518493,7.4477012 L 33.21961,6.5220126 33.177431,4.2508237 33.135252,1.9796349 32.700043,1.3640312 32.264835,0.74842767 29.783726,0.71970911 27.302618,0.69099062 25.973636,1.3960117 C 25.091634,1.8639112 24.643663,2.1612508 24.641708,2.2800761 24.636085,2.6219075 24.233219,5.4187729 24.182265,5.469727 24.137289,5.5147028 21.314909,5.1513224 20.738367,5.0263264 20.565637,4.9888778 20.43421,4.7133035 20.101084,3.6900794 L 19.681411,2.4010105 17.758288,2.430065 15.835164,2.4591195 11.414444,7.68398 c -2.431397,2.873673 -4.4065732,5.261647 -4.3892808,5.306608 0.017292,0.04496 0.7275785,0.629553 1.5784136,1.299092 l 1.5469732,1.217345 0.217178,1.630622 0.217178,1.630621 5.255687,2.916773 c 2.890627,1.604223 5.325791,2.974953 5.411474,3.046063 0.102492,0.08506 0.180389,0.449019 0.227699,1.063874 0.03955,0.51402 0.100547,1.163891 0.135547,1.444159 l 0.06363,0.509578 -2.980983,-0.02845 -2.980983,-0.02844 -0.03019,-1.133791 -0.03019,-1.133791 -0.878615,-0.0684 c -0.48324,-0.03762 -2.080845,-0.06869 -3.550235,-0.06904 l -2.6716186,-6.4e-4 -1.5179313,-1.515223 -1.5179312,-1.515224 -2.6532177,-0.0084 -2.65321772,-0.0084 -0.006721,1.015723 -0.006721,1.015723 0.0374639,-0.989121 0.0374639,-0.989121 2.53529432,0.0659 2.5352943,0.0659 1.4968553,1.474405 1.4968554,1.474405 3.4213834,0.0705 c 1.881761,0.03877 3.505582,0.09469 3.608491,0.124259 0.161754,0.04647 0.187107,0.195238 0.187107,1.097916 0,0.574287 0.03207,1.076233 0.07128,1.115436 0.0392,0.0392 1.46376,0.07128 3.165679,0.07128 h 3.094401 z m 10.863787,-4.613503 1.133069,-0.898094 1.102105,-0.06108 c 0.606158,-0.03359 1.845025,-0.08937 2.753039,-0.123947 0.908015,-0.03458 1.696138,-0.09081 1.751387,-0.124952 0.106371,-0.06574 0.04832,-0.961216 -0.16045,-2.474924 -0.101602,-0.736677 -0.16198,-0.909044 -0.345997,-0.987745 -0.122606,-0.05244 -2.046512,-0.309384 -4.275347,-0.570996 -2.783531,-0.326719 -4.081334,-0.519611 -4.144742,-0.616027 -0.05077,-0.0772 -0.980524,-1.607823 -2.066118,-3.401376 -1.085594,-1.793554 -2.019208,-3.329792 -2.074699,-3.413864 -0.119993,-0.181796 -0.261128,-0.0826 -2.256352,1.58592 -2.935769,2.455053 -4.811321,4.106498 -4.811321,4.236421 0,0.07525 0.164347,0.273798 0.365217,0.441216 0.200868,0.167416 1.959612,1.747791 3.908319,3.511942 1.948707,1.764151 3.660549,3.247567 3.804095,3.296478 0.332894,0.113433 3.04575,0.471185 3.693485,0.487072 0.461728,0.01132 0.55931,-0.04191 1.62431,-0.886047 z"
       id="path3646" />
    <path
       style="fill:#900c3f;stroke-width:0.106918"
       d="m 32.912863,39.201306 -9.533678,-0.3826 0.06124,-2.810296 0.06124,-2.810297 -0.524418,0.0041 c -0.28843,0.0023 -1.433621,0.04644 -2.544868,0.09816 l -2.020451,0.09403 -3.722179,-2.34344 -3.722179,-2.343442 H 9.5103625 8.0531539 l -2.5297215,-1.731055 -2.5297217,-1.731055 -1.9123374,-0.0467 -1.91233731,-0.0467 0.0679977,-0.804412 c 0.0373988,-0.442426 0.0679977,-1.32282 0.0679977,-1.95643 v -1.15202 l 3.23427671,0.0574 3.2342767,0.0574 1.5178235,1.50456 1.5178236,1.504561 3.8548171,0.04784 3.854819,0.04784 v 1.162124 1.162124 h 2.09827 2.098271 l -0.06682,-0.33412 c -0.03675,-0.183765 -0.06682,-0.515215 -0.06682,-0.736554 V 25.309911 L 15.316038,22.396218 C 12.41989,20.793687 9.9781447,19.415439 9.8899371,19.333445 9.7834925,19.234497 9.6576495,18.638243 9.5157233,17.560386 L 9.3018868,15.936411 7.5154657,14.543676 C 6.5329343,13.777674 5.7390664,13.118341 5.7513148,13.078495 5.7635634,13.038647 7.9760321,10.404449 10.667912,7.2247207 l 4.894327,-5.7813245 2.376113,0.00203 2.376113,0.00203 0.4243,1.3467624 c 0.233365,0.7407195 0.473931,1.3647263 0.534591,1.3866819 0.156299,0.056572 2.136097,0.3444097 2.168768,0.315312 0.01487,-0.013241 0.115111,-0.6814949 0.222766,-1.4850095 0.107654,-0.8035146 0.215774,-1.4772072 0.240266,-1.4970946 0.02449,-0.019887 0.7888,-0.4288408 1.698465,-0.90878536 l 1.653935,-0.87262584 2.676254,0.003607 2.676253,0.003607 0.706955,0.98538671 0.706956,0.98538679 0.05302,2.5282514 0.05302,2.5282513 -0.920356,1.2107753 -0.920358,1.2107752 -0.748427,0.1472036 c -0.411636,0.080962 -0.768418,0.1665029 -0.792851,0.1900912 -0.02443,0.023588 0.472497,1.1157413 1.104285,2.4270053 l 1.148706,2.384117 2.691313,0.186669 c 1.480223,0.102669 2.919852,0.214845 3.199175,0.249282 l 0.507862,0.06261 V 12.576667 10.31761 h 1.961206 1.961204 L 46.700257,13.658805 50.078735,17 l 0.09946,2.672956 c 0.09413,2.529653 0.08873,2.688171 -0.100688,2.956757 -0.110081,0.156089 -0.200147,0.305595 -0.200147,0.332235 0,0.02664 1.78488,0.08373 3.9664,0.12686 l 3.966398,0.07842 2.083808,1.026303 2.083807,1.026302 1.237732,1.503289 c 0.680752,0.826809 1.285991,1.565998 1.344977,1.642641 0.08765,0.113887 -0.223253,0.126275 -1.70146,0.06779 l -1.808706,-0.07156 -0.641509,-0.621771 C 59.841898,27.190756 59.605663,27.053971 58.37736,26.56397 l -1.389937,-0.55448 -3.661949,-0.05632 -3.66195,-0.05633 0.0046,0.30944 c 0.0025,0.170192 0.04649,0.958969 0.09764,1.752836 l 0.09301,1.443397 -1.011909,1.24773 c -0.55655,0.686252 -1.069594,1.295297 -1.140096,1.353432 -0.0705,0.05814 -1.048004,0.140537 -2.172225,0.183111 l -2.044039,0.07741 -0.06684,0.707524 c -0.03676,0.389139 -0.06718,2.042667 -0.0676,3.674506 l -7.61e-4,2.966982 -0.454403,-0.01465 c -0.249921,-0.0081 -4.744557,-0.186822 -9.98808,-0.397251 z M 42.431309,37.99375 C 42.469089,37.632294 42.5,36.002317 42.5,34.371579 v -2.964977 l 2.218553,-0.07378 c 1.220205,-0.04058 2.303126,-0.09792 2.406493,-0.127436 0.103365,-0.02951 0.552788,-0.495347 0.998717,-1.035185 l 0.810778,-0.981525 -0.06476,-1.336478 c -0.03562,-0.735063 -0.09339,-1.681421 -0.128395,-2.103016 l -0.06364,-0.766539 4.154836,0.05424 4.154835,0.05424 1.550315,0.598596 c 1.382399,0.533762 1.615583,0.661356 2.152919,1.178036 0.58413,0.561676 0.624816,0.581224 1.327036,0.637591 0.830778,0.06669 0.835215,0.139524 -0.05857,-0.961657 -0.441844,-0.544371 -0.635018,-0.668937 -2.365696,-1.525504 l -1.884565,-0.932731 -3.033674,-0.08958 c -1.668521,-0.04927 -3.815514,-0.09185 -4.771096,-0.09461 -0.955582,-0.0028 -1.737421,-0.03361 -1.737421,-0.06855 0,-0.03493 0.268543,-0.431238 0.596763,-0.880674 l 0.596764,-0.817158 -0.07759,-2.243019 C 49.239933,18.658197 49.175871,17.541932 49.140245,17.41127 49.10462,17.280606 47.720611,15.847589 46.06467,14.226787 l -3.010801,-2.946913 h -1.346117 -1.346117 v 2.245283 c 0,1.234906 -0.03608,2.244527 -0.08019,2.243605 -0.0441,-9.63e-4 -1.643868,-0.12082 -3.555032,-0.266436 -3.513273,-0.267685 -4.789874,-0.32227 -3.63522,-0.155434 0.323428,0.04673 1.959277,0.185672 3.63522,0.308757 1.675943,0.123083 3.203538,0.249557 3.394654,0.281052 l 0.347484,0.05727 v -2.311312 -2.31131 l 1.25629,0.07631 1.256289,0.07631 1.977987,1.90172 c 1.087894,1.045946 2.445013,2.374282 3.015822,2.951856 l 1.037834,1.050135 0.0996,2.286135 0.0996,2.286137 -0.644544,0.901091 c -0.369672,0.516813 -0.603961,0.94006 -0.549381,0.992468 0.05234,0.05026 2.2362,0.149638 4.853024,0.220845 l 4.757862,0.12947 1.784755,0.898531 c 1.595015,0.803006 1.847903,0.968311 2.37874,1.554905 0.326692,0.361007 0.574931,0.67543 0.551642,0.698719 -0.150972,0.150971 -0.90367,-0.165568 -1.362311,-0.572905 -0.619152,-0.549895 -0.92263,-0.712546 -2.55306,-1.368321 l -1.227439,-0.49369 -4.369271,-0.06885 -4.369271,-0.06885 0.06081,0.311588 c 0.03344,0.171374 0.08931,0.937061 0.124152,1.701526 0.03484,0.764465 0.08846,1.56462 0.119164,1.778121 0.05157,0.358627 -0.0053,0.461663 -0.747401,1.353247 -0.441773,0.530786 -0.848148,0.992829 -0.903055,1.026764 -0.05491,0.03393 -1.102634,0.111599 -2.32828,0.172586 -1.225647,0.06099 -2.262143,0.145959 -2.303326,0.188826 -0.04118,0.04287 -0.108638,1.617563 -0.149902,3.499324 -0.04126,1.881761 -0.105188,3.470333 -0.142055,3.530161 -0.04536,0.07361 -1.190362,0.06752 -3.541876,-0.01884 -6.843807,-0.251352 -12.152517,-0.464157 -13.166222,-0.527783 l -1.031002,-0.06471 0.05816,-2.881904 0.05816,-2.881904 -0.524014,0.06244 c -0.288207,0.03434 -1.600481,0.106309 -2.916164,0.15993 l -2.39215,0.0975 -3.735325,-2.34593 -3.735327,-2.345929 H 9.8225604 8.3780597 L 5.8772128,25.927673 3.376366,24.216981 l -1.5278056,0.02335 -1.52780568,0.02335 1.43364008,0.03333 1.4336401,0.03333 2.4965042,1.707471 2.4965041,1.70747 h 1.4407657 1.4407661 l 3.76453,2.36561 3.76453,2.36561 1.984056,-0.06942 c 1.091232,-0.03818 2.401454,-0.09825 2.911606,-0.133493 l 0.927548,-0.06408 -0.06196,2.843527 c -0.05202,2.387218 -0.03787,2.850823 0.08817,2.888996 0.144023,0.04362 15.432138,0.663991 17.108178,0.694229 l 0.813386,0.01467 z M 21.830381,27.611635 C 21.798712,27.479324 21.741025,26.913994 21.702188,26.355346 21.570799,24.46537 22.181365,24.987765 16.225599,21.669618 13.358437,20.07223 10.952202,18.725954 10.878408,18.677893 10.80033,18.627041 10.653514,17.946378 10.527233,17.049789 10.352691,15.810551 10.265304,15.46125 10.08064,15.264683 9.954365,15.130271 9.2608801,14.55621 8.5395614,13.988994 L 7.2280727,12.957692 7.7838477,12.292026 C 8.0895239,11.925911 10.047642,9.6000004 12.13522,7.1233382 l 3.795598,-4.5030225 1.256289,-0.023027 c 0.690959,-0.012665 1.505104,-0.024877 1.809212,-0.027139 l 0.552922,-0.00411 0.386501,1.201373 c 0.212576,0.6607553 0.432865,1.2471077 0.48953,1.3030056 0.105245,0.1038174 2.996475,0.5427912 3.575006,0.5427912 0.243745,0 0.332644,-0.057067 0.374758,-0.240566 0.05235,-0.2281082 0.483455,-3.0022459 0.483455,-3.1110167 0,-0.028268 0.598936,-0.3682739 1.33097,-0.7555675 l 1.33097,-0.70417051 2.277521,0.002844 2.27752,0.002844 0.43679,0.61458241 0.436788,0.6145826 0.06729,2.1737241 0.06729,2.1737243 -0.658343,0.8707987 c -0.362087,0.4789393 -0.704131,0.9019917 -0.760098,0.9401165 -0.05597,0.038125 -0.395511,0.1248585 -0.754545,0.1927416 -0.689397,0.130346 -1.668513,0.4200955 -1.668513,0.4937629 0,0.2108946 2.947047,6.2058621 3.095963,6.2978981 0.147133,0.09093 -0.08494,-0.424363 -1.525557,-3.387423 C 30.134679,10.397854 29.550961,9.1654311 29.515393,9.0533653 29.459028,8.8757791 29.536887,8.8328992 30.121588,8.719507 31.928452,8.3690983 31.748175,8.4647538 32.518493,7.4477012 L 33.21961,6.5220126 33.177431,4.2508237 33.135252,1.9796349 32.700043,1.3640312 32.264835,0.74842767 29.783726,0.71970911 27.302618,0.69099062 25.973636,1.3960117 C 25.091634,1.8639112 24.643663,2.1612508 24.641708,2.2800761 24.636085,2.6219075 24.233219,5.4187729 24.182265,5.469727 24.137289,5.5147028 21.314909,5.1513224 20.738367,5.0263264 20.565637,4.9888778 20.43421,4.7133035 20.101084,3.6900794 L 19.681411,2.4010105 17.758288,2.430065 15.835164,2.4591195 11.414444,7.68398 c -2.431397,2.873673 -4.4065732,5.261647 -4.3892808,5.306608 0.017292,0.04496 0.7275785,0.629553 1.5784136,1.299092 l 1.5469732,1.217345 0.217178,1.630622 0.217178,1.630621 5.255687,2.916773 c 2.890627,1.604223 5.325791,2.974953 5.411474,3.046063 0.102492,0.08506 0.180389,0.449019 0.227699,1.063874 0.03955,0.51402 0.100547,1.163891 0.135547,1.444159 l 0.06363,0.509578 -2.980983,-0.02845 -2.980983,-0.02844 -0.03019,-1.133791 -0.03019,-1.133791 -0.878615,-0.0684 c -0.48324,-0.03762 -2.080845,-0.06869 -3.550235,-0.06904 l -2.6716186,-6.4e-4 -1.5179313,-1.515223 -1.5179312,-1.515224 -2.6532177,-0.0084 -2.65321772,-0.0084 -0.006721,1.015723 -0.006721,1.015723 0.0374639,-0.989121 0.0374639,-0.989121 2.53529432,0.0659 2.5352943,0.0659 1.4968553,1.474405 1.4968554,1.474405 3.4213834,0.0705 c 1.881761,0.03877 3.505582,0.09469 3.608491,0.124259 0.161754,0.04647 0.187107,0.195238 0.187107,1.097916 0,0.574287 0.03207,1.076233 0.07128,1.115436 0.0392,0.0392 1.46376,0.07128 3.165679,0.07128 h 3.094401 z m 10.863787,-4.613503 1.133069,-0.898094 1.102105,-0.06108 c 0.606158,-0.03359 1.845025,-0.08937 2.753039,-0.123947 0.908015,-0.03458 1.696138,-0.09081 1.751387,-0.124952 0.106371,-0.06574 0.04832,-0.961216 -0.16045,-2.474924 -0.101602,-0.736677 -0.16198,-0.909044 -0.345997,-0.987745 -0.122606,-0.05244 -2.046512,-0.309384 -4.275347,-0.570996 -2.783531,-0.326719 -4.081334,-0.519611 -4.144742,-0.616027 -0.05077,-0.0772 -0.980524,-1.607823 -2.066118,-3.401376 -1.085594,-1.793554 -2.019208,-3.329792 -2.074699,-3.413864 -0.119993,-0.181796 -0.261128,-0.0826 -2.256352,1.58592 -2.935769,2.455053 -4.811321,4.106498 -4.811321,4.236421 0,0.07525 0.164347,0.273798 0.365217,0.441216 0.200868,0.167416 1.959612,1.747791 3.908319,3.511942 1.948707,1.764151 3.660549,3.247567 3.804095,3.296478 0.332894,0.113433 3.04575,0.471185 3.693485,0.487072 0.461728,0.01132 0.55931,-0.04191 1.62431,-0.886047 z"
       id="path3685" />
  </g>
</svg>
